<?xml version="1.0" encoding="UTF-8" standalone="no"?>
<svg width="200px" height="42px" viewBox="0 0 200 42" version="1.1" xmlns="http://www.w3.org/2000/svg" xmlns:xlink="http://www.w3.org/1999/xlink">
    <!-- Generator: Sketch 50.2 (55047) - http://www.bohemiancoding.com/sketch -->
    <title>logo-horizontal</title>
    <desc>Created with Sketch.</desc>
    <defs></defs>
    <g id="Page-1" stroke="none" stroke-width="1" fill="none" fill-rule="evenodd">
        <g id="logo-horizontal">
            <g id="logo">
                <path d="M19.3163685,0.823541571 C33.8736318,0.551684465 41.1522634,4.47326337 41.1522634,12.5882783 C41.1522634,20.7032932 33.8736318,24.6247998 19.3163685,24.352798 L19.3163685,0.823541571 Z" id="Path-6" fill="#835AF6"></path>
                <polygon id="Path-7" fill="#02E0F3" points="19.3163685 17.9607227 24.3554212 12.5882353 19.3163685 0.823529412"></polygon>
                <polygon id="Rectangle-4" fill="#FE3E80" transform="translate(15.957000, 27.294118) scale(-1, 1) translate(-15.957000, -27.294118) " points="7.55857899 12.5882353 24.3554212 27.2941176 7.55857899 42"></polygon>
                <polygon id="Path-8" fill="#BC00D2" points="11.7573292 30.9691082 16.7990639 27.2941176 16.7990639 35.3865587"></polygon>
                <polygon id="Rectangle-4" fill="#FFC654" points="0 12.5882353 16.7968422 27.2941176 0 42"></polygon>
            </g>
            <path d="M71.0179133,31.8148789 L66.6606149,24.5787197 L62.3940934,31.8148789 L57.6131687,31.8148789 L64.4819656,21.732699 L58.097313,11.8321799 L63.0295328,11.8321799 L67.0842411,18.7958478 L71.1389494,11.8321799 L75.647543,11.8321799 L69.2326313,21.5813149 L76.0106512,31.8148789 L71.0179133,31.8148789 Z M92.8951828,13.5125433 C94.1862406,14.6327911 94.8317599,16.2122159 94.8317599,18.2508651 C94.8317599,20.2289603 94.1862406,21.7730625 92.8951828,22.883218 C91.6041249,23.9933735 89.7986883,24.5484429 87.4788187,24.5484429 L83.2728153,24.5484429 L83.2728153,31.8148789 L79.0970709,31.8148789 L79.0970709,11.8321799 L87.4788187,11.8321799 C89.7986883,11.8321799 91.6041249,12.3922954 92.8951828,13.5125433 Z M89.810276,20.5367647 C90.4154593,20.0220563 90.7180465,19.2500051 90.7180465,18.2205882 C90.7180465,17.1911713 90.4154593,16.4241663 89.810276,15.9195502 C89.2050926,15.414934 88.2569862,15.1626298 86.9659283,15.1626298 L83.3953643,15.1626298 L83.3953643,21.3088235 L86.9659283,21.3088235 C88.2569862,21.3088235 89.2050926,21.0514732 89.810276,20.5367647 Z M105.133442,11.8321799 L113.878298,11.8321799 C116.258686,11.8321799 118.033864,12.3014659 119.203885,13.2400519 C120.373906,14.1786379 120.958908,15.5259428 120.958908,17.2820069 C120.958908,18.3921624 120.626062,19.3559648 119.960361,20.1734429 C119.294659,20.990921 118.356639,21.5005757 117.146272,21.7024221 L117.146272,21.732699 C118.518021,21.9345454 119.582119,22.4542922 120.338598,23.291955 C121.095078,24.1296178 121.473312,25.143881 121.473312,26.3347751 C121.473312,28.0706546 120.847965,29.4179595 119.597252,30.3767301 C118.34654,31.3355008 116.541104,31.8148789 114.180888,31.8148789 L105.133442,31.8148789 L105.133442,11.8321799 Z M113.303377,20.2188581 C115.522383,20.2188581 116.631869,19.3610236 116.631869,17.6453287 C116.631869,15.9296339 115.522383,15.0717993 113.303377,15.0717993 L109.188151,15.0717993 L109.188151,20.2188581 L113.303377,20.2188581 Z M113.81778,28.66609 C114.927283,28.66609 115.759398,28.4390161 116.314149,27.9848616 C116.868901,27.5307071 117.146272,26.879762 117.146272,26.0320069 C117.146272,25.1842518 116.868901,24.5383529 116.314149,24.0942907 C115.759398,23.6502285 114.927283,23.4282007 113.81778,23.4282007 L109.188151,23.4282007 L109.188151,28.66609 L113.81778,28.66609 Z M134.061063,24.3365052 L134.061063,31.8148789 L129.885318,31.8148789 L129.885318,24.3365052 L122.804708,11.8321799 L127.252784,11.8321799 L130.46024,17.7967128 L131.973191,20.9455017 L133.5164,17.7967128 L136.723856,11.8321799 L141.141673,11.8321799 L134.061063,24.3365052 Z M160.45449,15.1929066 L153.767248,15.1929066 L153.767248,31.8148789 L149.591503,31.8148789 L149.591503,15.1929066 L142.874001,15.1929066 L142.874001,11.8321799 L160.45449,11.8321799 L160.45449,15.1929066 Z M179.275599,28.4541522 L179.275599,31.8148789 L163.873759,31.8148789 L163.873759,11.8321799 L178.851973,11.8321799 L178.851973,15.1929066 L168.049504,15.1929066 L168.049504,20.1583045 L176.552288,20.1583045 L176.552288,23.3676471 L168.049504,23.3676471 L168.049504,28.4541522 L179.275599,28.4541522 Z M196.046659,12.4528547 C197.378063,13.0684864 198.548066,14.0423809 199.556705,15.3745675 L196.682099,18.1903114 C196.157607,17.1003406 195.461656,16.2879208 194.594227,15.7530277 C193.726797,15.2181346 192.627397,14.950692 191.295994,14.950692 C190.085627,14.950692 189.15265,15.1777659 188.497035,15.6319204 C187.841419,16.0860749 187.513617,16.6865591 187.513617,17.433391 C187.513617,18.1196689 187.846462,18.6646462 188.512164,19.0683391 C189.177866,19.472032 190.378128,19.825258 192.112987,20.1280277 C193.928537,20.4711667 195.370869,20.8950378 196.440027,21.399654 C197.509184,21.9042701 198.290867,22.5350308 198.7851,23.291955 C199.279334,24.0488792 199.526446,24.9924972 199.526446,26.1228374 C199.526446,27.3541007 199.178471,28.4188248 198.48251,29.3170415 C197.786549,30.2152582 196.818271,30.906572 195.577645,31.3910035 C194.337019,31.8754349 192.919902,32.1176471 191.326253,32.1176471 C189.12742,32.1176471 187.327026,31.8098358 185.925018,31.1942042 C184.52301,30.5785725 183.388308,29.6450466 182.520879,28.3935986 L185.002118,25.4264706 C185.748511,26.657734 186.605841,27.5105224 187.574135,27.9848616 C188.542428,28.4592008 189.74269,28.6963668 191.174958,28.6963668 C192.466015,28.6963668 193.449424,28.4945234 194.125212,28.0908304 C194.801,27.6871375 195.138889,27.1118838 195.138889,26.3650519 C195.138889,25.8200665 194.821172,25.3659188 194.18573,25.0025952 C193.550287,24.6392715 192.415586,24.2961377 190.78159,23.9731834 C188.905522,23.5896751 187.407716,23.1355274 186.288126,22.6107266 C185.168537,22.0859259 184.356595,21.4400269 183.852275,20.6730104 C183.347956,19.9059939 183.0958,18.9573298 183.0958,17.8269896 C183.0958,16.6360955 183.41856,15.5612793 184.064089,14.6025087 C184.709618,13.643738 185.652681,12.8918712 186.893307,12.3468858 C188.133933,11.8019004 189.591394,11.5294118 191.265735,11.5294118 C193.12163,11.5294118 194.715256,11.837223 196.046659,12.4528547 Z" id="xpbytes" fill="#000000"></path>
        </g>
    </g>
</svg>