<?xml version="1.0" encoding="UTF-8"?>
<svg version="1.1" viewBox="0 0 150 96" xmlns="http://www.w3.org/2000/svg">
<title>XP Bytes logo vertical (mono)</title>
<desc>eXPerienced Bytes logo in monochrome</desc>
<g fill="none" fill-rule="evenodd">
<path d="m14.088 95.03l-4.4883-7.4162-4.3948 7.4162h-4.9247l7.0753-10.333-6.5766-10.147h5.0805l4.1766 7.137 4.1766-7.137h4.6442l-6.6078 9.9918 6.9818 10.488h-5.1429zm22.535-18.758c1.3299 1.1481 1.9948 2.7669 1.9948 4.8562 0 2.0273-0.66493 3.6099-1.9948 4.7476-1.3299 1.1378-3.1896 1.7067-5.5792 1.7067h-4.3325v7.4473h-4.3013v-20.48h8.6338c2.3896 0 4.2493 0.57405 5.5792 1.7222zm-3.3039 7.199c0.62338-0.52752 0.93506-1.3188 0.93506-2.3738 0-1.055-0.31169-1.8411-0.93506-2.3583-0.62338-0.51717-1.6-0.77576-2.9299-0.77576h-3.6779v6.2992h3.6779c1.3299 0 2.3065-0.26376 2.9299-0.79127zm19.301-8.9212h9.0078c2.452 0 4.2805 0.48096 5.4857 1.4429s1.8078 2.3428 1.8078 4.1425c0 1.1378-0.34285 2.1256-1.0286 2.9634s-1.6519 1.3602-2.8987 1.567v0.03103c1.413 0.20687 2.5091 0.73955 3.2883 1.5981 0.77922 0.85851 1.1688 1.898 1.1688 3.1185 0 1.7791-0.64415 3.1599-1.9325 4.1425-1.2883 0.98263-3.148 1.4739-5.5792 1.4739h-9.3195v-20.48zm8.4156 8.5954c2.2857 0 3.4286-0.87918 3.4286-2.6376s-1.1428-2.6376-3.4286-2.6376h-4.239v5.2752h4.239zm0.52987 8.6575c1.1429 0 2-0.23272 2.5714-0.69818 0.57143-0.46546 0.85714-1.1326 0.85714-2.0015 0-0.86885-0.28571-1.5308-0.85714-1.9859-0.57143-0.45511-1.4286-0.68267-2.5714-0.68267h-4.7688v5.3682h4.7688zm20.852-4.4373v7.6645h-4.3013v-7.6645l-7.2935-12.816h4.5818l3.3039 6.113 1.5584 3.2272 1.5896-3.2272 3.3039-6.113h4.5506l-7.2935 12.816zm27.187-9.3712h-6.8883v17.036h-4.3013v-17.036h-6.9195v-3.4444h18.109v3.4444zm19.387 13.591v3.4444h-15.865v-20.48h15.429v3.4444h-11.127v5.089h8.7584v3.2892h-8.7584v5.2131h11.564zm17.275-16.4c1.3714 0.63095 2.5766 1.6291 3.6156 2.9944l-2.961 2.8858c-0.54026-1.1171-1.2571-1.9497-2.1506-2.4979-0.89351-0.5482-2.026-0.8223-3.3974-0.8223-1.2468 0-2.2078 0.23272-2.8831 0.69818-0.67533 0.46546-1.013 1.0809-1.013 1.8463 0 0.70336 0.34285 1.2619 1.0286 1.6756 0.68572 0.41374 1.9221 0.77576 3.7091 1.0861 1.8701 0.35168 3.3558 0.7861 4.4571 1.3033s1.9065 1.1636 2.4156 1.9394c0.50909 0.77576 0.76364 1.7429 0.76364 2.9013 0 1.2619-0.35844 2.3531-1.0753 3.2737-0.71689 0.92057-1.7143 1.6291-2.9922 2.1256-1.2779 0.49649-2.7377 0.74473-4.3792 0.74473-2.2649 0-4.1195-0.31547-5.5636-0.94642-1.4442-0.63095-2.613-1.5877-3.5065-2.8703l2.5558-3.041c0.76884 1.2619 1.6519 2.1359 2.6494 2.6221 0.99741 0.48614 2.2338 0.72921 3.7091 0.72921 1.3299 0 2.3429-0.20687 3.039-0.62061 0.69611-0.41374 1.0442-1.0033 1.0442-1.7687 0-0.55855-0.32727-1.024-0.98182-1.3964-0.65455-0.37237-1.8234-0.72404-3.5065-1.055-1.9325-0.39305-3.4753-0.8585-4.6286-1.3964-1.1533-0.53786-1.9896-1.1998-2.5091-1.9859-0.51948-0.7861-0.77922-1.7584-0.77922-2.9168 0-1.2205 0.33246-2.3221 0.9974-3.3047 0.66494-0.98263 1.6364-1.7532 2.9143-2.3118 1.2779-0.55855 2.7792-0.83782 4.5039-0.83782 1.9117 0 3.5532 0.31547 4.9247 0.94642z" fill="#fff"/>
<g transform="translate(52.597)">
<path d="m22.403-1.6517e-4c16.883 0.067189 25.325 4.5925 25.325 13.576 0 8.9835-8.4416 13.509-25.325 13.576v-27.152z" fill="#fff"/>
<polygon points="22.403 19.775 28.247 13.576 22.403 0" fill="#999"/>
<polygon transform="translate(18.506 30.545) scale(-1 1) translate(-18.506 -30.545)" points="8.7662 13.576 28.247 30.545 8.7662 47.515" fill="#D1D1D1"/>
<polygon points="13.636 34.786 19.483 30.545 19.483 39.884" fill="#999"/>
<polygon points="0 13.576 19.481 30.545 0 47.515" fill="#fff"/>
</g>
</g>
</svg>
