<?xml version="1.0" standalone="no"?>
<!DOCTYPE svg PUBLIC "-//W3C//DTD SVG 20010904//EN"
 "http://www.w3.org/TR/2001/REC-SVG-20010904/DTD/svg10.dtd">
<svg version="1.0" xmlns="http://www.w3.org/2000/svg"
 width="2048.000000pt" height="2048.000000pt" viewBox="0 0 2048.000000 2048.000000"
 preserveAspectRatio="xMidYMid meet">
<metadata>
Created by potrace 1.11, written by Peter Selinger 2001-2013
</metadata>
<g transform="translate(0.000000,2048.000000) scale(0.100000,-0.100000)"
fill="#000000" stroke="none">
<path d="M0 10240 l0 -10240 10240 0 10240 0 0 10240 0 10240 -10240 0 -10240
0 0 -10240z m7670 2370 l0 -340 -303 -2 -304 -3 247 -360 c217 -316 250 -360
271 -357 33 4 72 -14 88 -41 8 -12 16 -53 19 -92 l5 -70 154 -225 c85 -124
158 -225 163 -225 5 0 66 83 135 185 l126 185 -35 3 c-38 3 -52 32 -16 32 19
0 20 7 20 110 0 103 -1 110 -20 110 -11 0 -20 7 -20 15 0 10 11 15 35 15 l35
0 0 -125 c0 -99 3 -125 14 -125 16 0 160 214 146 218 -20 7 -10 32 13 32 18 0
67 66 265 358 l243 357 -311 3 -310 2 0 340 0 340 1040 0 1040 0 0 -340 0
-340 -341 -2 -341 -3 -262 -385 -262 -385 1 -76 c0 -46 -5 -86 -14 -102 -19
-35 -62 -52 -99 -39 l-29 10 -179 -263 -179 -264 3 -130 c3 -122 4 -131 23
-131 10 0 19 -7 19 -15 0 -12 -13 -15 -55 -15 -42 0 -55 3 -55 15 0 8 9 15 20
15 19 0 20 7 20 105 0 58 -2 105 -5 105 -4 0 -87 -118 -130 -186 -11 -18 -48
-72 -82 -122 l-62 -90 125 -183 c104 -152 129 -184 147 -181 30 4 70 -15 86
-40 8 -12 16 -51 19 -87 l5 -66 531 -777 531 -778 353 0 352 0 0 -340 0 -340
-1110 0 -1110 0 0 340 0 340 311 2 310 3 -225 331 c-224 330 -225 331 -265
338 -52 8 -74 41 -81 120 -5 60 -9 67 -210 363 -113 166 -207 302 -210 302 -3
1 -24 -27 -46 -62 -23 -34 -101 -149 -173 -255 -131 -191 -131 -192 -107 -203
36 -17 51 -54 51 -129 0 -77 -16 -114 -55 -130 -55 -23 -105 11 -119 82 -6 31
-19 14 -274 -361 -147 -216 -267 -394 -267 -397 0 -2 146 -4 325 -4 l325 0 0
-340 0 -340 -1080 0 -1080 0 0 340 0 340 364 0 364 0 226 333 226 332 -30 12
c-41 18 -60 60 -60 135 0 103 51 157 120 128 31 -13 47 -38 58 -95 l8 -40 34
50 c19 27 33 60 32 72 -1 16 4 23 16 23 11 1 81 94 202 273 l185 272 -3 90
c-2 75 0 95 17 122 24 39 68 50 109 29 l30 -15 107 158 107 158 -127 187 c-69
102 -128 186 -131 186 -2 0 -4 -25 -4 -55 0 -48 2 -55 20 -55 11 0 20 -7 20
-15 0 -12 -13 -15 -55 -15 -42 0 -55 3 -55 15 0 8 9 15 20 15 18 0 20 7 20 83
l0 84 -203 299 c-200 294 -204 299 -240 302 -39 3 -54 32 -17 32 14 0 18 5 13
18 -5 14 -103 162 -107 162 0 0 -1 -31 -1 -68 0 -79 -15 -116 -55 -132 -69
-29 -120 25 -120 128 0 100 43 154 108 137 13 -3 22 -2 20 4 -1 5 -111 169
-243 365 l-240 355 -352 1 -353 0 0 340 0 340 1090 0 1090 0 0 -340z m5460
330 c808 -35 1123 -136 1428 -455 338 -353 498 -869 442 -1426 -41 -407 -230
-804 -496 -1047 -66 -60 -74 -71 -57 -76 32 -10 48 -53 48 -126 0 -77 -16
-114 -55 -130 -69 -29 -120 25 -120 128 0 34 -3 62 -6 62 -4 0 -28 -12 -55
-27 l-49 -26 0 -59 c0 -51 2 -58 20 -58 11 0 20 -7 20 -15 0 -12 -13 -15 -55
-15 -42 0 -55 3 -55 15 0 8 9 15 20 15 17 0 20 7 20 51 0 37 -3 50 -12 46 -93
-38 -118 -52 -118 -61 0 -19 -38 -55 -65 -62 -14 -3 -38 1 -57 10 -29 15 -37
15 -83 2 -176 -52 -677 -86 -1262 -86 l-293 0 0 -700 0 -700 355 0 355 0 0
-340 0 -340 -1105 0 -1105 0 0 340 0 340 345 0 345 0 0 735 c0 728 0 735 -20
735 -11 0 -20 7 -20 15 0 8 7 15 15 15 12 0 15 19 15 110 0 91 -3 110 -15 110
-8 0 -15 7 -15 15 0 8 9 15 20 15 19 0 20 7 20 260 0 253 -1 260 -20 260 -11
0 -20 7 -20 15 0 8 7 15 15 15 12 0 15 19 15 110 0 91 -3 110 -15 110 -8 0
-15 7 -15 15 0 8 9 15 20 15 19 0 20 7 20 260 0 253 -1 260 -20 260 -11 0 -20
7 -20 15 0 8 7 15 15 15 12 0 15 19 15 110 0 91 -3 110 -15 110 -8 0 -15 7
-15 15 0 8 9 15 20 15 20 0 20 5 18 358 l-3 357 -342 3 -343 2 0 340 0 340
1058 0 c581 0 1158 -5 1282 -10z m-7327 -1401 c37 -17 52 -54 52 -129 0 -77
-16 -114 -55 -130 -69 -29 -120 25 -120 128 0 110 51 164 123 131z m207 -114
c0 -118 1 -125 20 -125 11 0 20 -7 20 -15 0 -12 -13 -15 -55 -15 -42 0 -55 3
-55 15 0 8 9 15 20 15 19 0 20 7 20 110 0 103 -1 110 -20 110 -11 0 -20 7 -20
15 0 10 11 15 35 15 l35 0 0 -125z m210 0 c0 -118 1 -125 20 -125 11 0 20 -7
20 -15 0 -12 -13 -15 -55 -15 -42 0 -55 3 -55 15 0 8 9 15 20 15 19 0 20 7 20
110 0 103 -1 110 -20 110 -11 0 -20 7 -20 15 0 10 11 15 35 15 l35 0 0 -125z
m233 114 c37 -17 52 -54 52 -129 0 -77 -16 -114 -55 -130 -69 -29 -120 25
-120 128 0 110 51 164 123 131z m1387 -114 c0 -118 1 -125 20 -125 11 0 20 -7
20 -15 0 -12 -13 -15 -55 -15 -42 0 -55 3 -55 15 0 8 9 15 20 15 19 0 20 7 20
110 0 103 -1 110 -20 110 -11 0 -20 7 -20 15 0 10 11 15 35 15 l35 0 0 -125z
m233 114 c37 -17 52 -54 52 -129 0 -77 -16 -114 -55 -130 -69 -29 -120 25
-120 128 0 110 51 164 123 131z m1400 0 c37 -17 52 -54 52 -129 0 -77 -16
-114 -55 -130 -69 -29 -120 25 -120 128 0 110 51 164 123 131z m207 -114 c0
-118 1 -125 20 -125 11 0 20 -7 20 -15 0 -12 -13 -15 -55 -15 -42 0 -55 3 -55
15 0 8 9 15 20 15 19 0 20 7 20 110 0 103 -1 110 -20 110 -11 0 -20 7 -20 15
0 10 11 15 35 15 l35 0 0 -125z m223 114 c37 -17 52 -54 52 -129 0 -77 -16
-114 -55 -130 -69 -29 -120 25 -120 128 0 110 51 164 123 131z m207 -114 c0
-118 1 -125 20 -125 11 0 20 -7 20 -15 0 -12 -13 -15 -55 -15 -42 0 -55 3 -55
15 0 8 9 15 20 15 19 0 20 7 20 110 0 103 -1 110 -20 110 -11 0 -20 7 -20 15
0 10 11 15 35 15 l35 0 0 -125z m233 114 c37 -17 52 -54 52 -129 0 -77 -16
-114 -55 -130 -69 -29 -120 25 -120 128 0 110 51 164 123 131z m210 0 c37 -17
52 -54 52 -129 0 -77 -16 -114 -55 -130 -69 -29 -120 25 -120 128 0 110 51
164 123 131z m220 0 c37 -17 52 -54 52 -129 0 -77 -16 -114 -55 -130 -69 -29
-120 25 -120 128 0 110 51 164 123 131z m220 0 c37 -17 52 -54 52 -129 0 -77
-16 -114 -55 -130 -69 -29 -120 25 -120 128 0 110 51 164 123 131z m310 0 c37
-17 52 -54 52 -129 0 -77 -16 -114 -55 -130 -69 -29 -120 25 -120 128 0 110
51 164 123 131z m-5500 -800 c37 -17 52 -54 52 -129 0 -77 -16 -114 -55 -130
-69 -29 -120 25 -120 128 0 110 51 164 123 131z m207 -114 c0 -118 1 -125 20
-125 11 0 20 -7 20 -15 0 -12 -13 -15 -55 -15 -42 0 -55 3 -55 15 0 8 9 15 20
15 19 0 20 7 20 110 0 103 -1 110 -20 110 -11 0 -20 7 -20 15 0 10 11 15 35
15 l35 0 0 -125z m210 0 c0 -118 1 -125 20 -125 11 0 20 -7 20 -15 0 -12 -13
-15 -55 -15 -42 0 -55 3 -55 15 0 8 9 15 20 15 19 0 20 7 20 110 0 103 -1 110
-20 110 -11 0 -20 7 -20 15 0 10 11 15 35 15 l35 0 0 -125z m233 114 c37 -17
52 -54 52 -129 0 -77 -16 -114 -55 -130 -69 -29 -120 25 -120 128 0 110 51
164 123 131z m207 -114 c0 -118 1 -125 20 -125 11 0 20 -7 20 -15 0 -12 -13
-15 -55 -15 -42 0 -55 3 -55 15 0 8 9 15 20 15 19 0 20 7 20 110 0 103 -1 110
-20 110 -11 0 -20 7 -20 15 0 10 11 15 35 15 l35 0 0 -125z m223 114 c37 -17
52 -54 52 -129 0 -77 -16 -114 -55 -130 -69 -29 -120 25 -120 128 0 110 51
164 123 131z m220 0 c37 -17 52 -54 52 -129 0 -77 -16 -114 -55 -130 -69 -29
-120 25 -120 128 0 110 51 164 123 131z m1840 0 c37 -17 52 -54 52 -129 0 -77
-16 -114 -55 -130 -69 -29 -120 25 -120 128 0 110 51 164 123 131z m197 -114
c0 -118 1 -125 20 -125 11 0 20 -7 20 -15 0 -12 -13 -15 -55 -15 -42 0 -55 3
-55 15 0 8 9 15 20 15 19 0 20 7 20 110 0 103 -1 110 -20 110 -11 0 -20 7 -20
15 0 10 11 15 35 15 l35 0 0 -125z m333 114 c37 -17 52 -54 52 -129 0 -77 -16
-114 -55 -130 -69 -29 -120 25 -120 128 0 110 51 164 123 131z m207 -114 c0
-118 1 -125 20 -125 11 0 20 -7 20 -15 0 -12 -13 -15 -55 -15 -42 0 -55 3 -55
15 0 8 9 15 20 15 19 0 20 7 20 110 0 103 -1 110 -20 110 -11 0 -20 7 -20 15
0 10 11 15 35 15 l35 0 0 -125z m210 0 c0 -118 1 -125 20 -125 11 0 20 -7 20
-15 0 -12 -13 -15 -55 -15 -42 0 -55 3 -55 15 0 8 9 15 20 15 19 0 20 7 20
110 0 103 -1 110 -20 110 -11 0 -20 7 -20 15 0 10 11 15 35 15 l35 0 0 -125z
m233 114 c37 -17 52 -54 52 -129 0 -77 -16 -114 -55 -130 -69 -29 -120 25
-120 128 0 110 51 164 123 131z m207 -114 c0 -118 1 -125 20 -125 11 0 20 -7
20 -15 0 -12 -13 -15 -55 -15 -42 0 -55 3 -55 15 0 8 9 15 20 15 19 0 20 7 20
110 0 103 -1 110 -20 110 -11 0 -20 7 -20 15 0 10 11 15 35 15 l35 0 0 -125z
m210 0 c0 -118 1 -125 20 -125 11 0 20 -7 20 -15 0 -12 -13 -15 -55 -15 -42 0
-55 3 -55 15 0 8 9 15 20 15 19 0 20 7 20 110 0 103 -1 110 -20 110 -11 0 -20
7 -20 15 0 10 11 15 35 15 l35 0 0 -125z m220 0 c0 -118 1 -125 20 -125 11 0
20 -7 20 -15 0 -12 -13 -15 -55 -15 -42 0 -55 3 -55 15 0 8 9 15 20 15 19 0
20 7 20 110 0 103 -1 110 -20 110 -11 0 -20 7 -20 15 0 10 11 15 35 15 l35 0
0 -125z m233 114 c37 -17 52 -54 52 -129 0 -77 -16 -114 -55 -130 -69 -29
-120 25 -120 128 0 110 51 164 123 131z m310 0 c37 -17 52 -54 52 -129 0 -77
-16 -114 -55 -130 -69 -29 -120 25 -120 128 0 110 51 164 123 131z m-5500
-800 c37 -17 52 -54 52 -129 0 -77 -16 -114 -55 -130 -69 -29 -120 25 -120
128 0 110 51 164 123 131z m207 -114 c0 -118 1 -125 20 -125 11 0 20 -7 20
-15 0 -12 -13 -15 -55 -15 -42 0 -55 3 -55 15 0 8 9 15 20 15 19 0 20 7 20
110 0 103 -1 110 -20 110 -11 0 -20 7 -20 15 0 10 11 15 35 15 l35 0 0 -125z
m210 0 c0 -118 1 -125 20 -125 11 0 20 -7 20 -15 0 -12 -13 -15 -55 -15 -42 0
-55 3 -55 15 0 8 9 15 20 15 19 0 20 7 20 110 0 103 -1 110 -20 110 -11 0 -20
7 -20 15 0 10 11 15 35 15 l35 0 0 -125z m233 114 c37 -17 52 -54 52 -129 0
-77 -16 -114 -55 -130 -69 -29 -120 25 -120 128 0 110 51 164 123 131z m220 0
c37 -17 52 -54 52 -129 0 -77 -16 -114 -55 -130 -69 -29 -120 25 -120 128 0
110 51 164 123 131z m197 -114 c0 -118 1 -125 20 -125 11 0 20 -7 20 -15 0
-12 -13 -15 -55 -15 -42 0 -55 3 -55 15 0 8 9 15 20 15 19 0 20 7 20 110 0
103 -1 110 -20 110 -11 0 -20 7 -20 15 0 10 11 15 35 15 l35 0 0 -125z m233
114 c37 -17 52 -54 52 -129 0 -77 -16 -114 -55 -130 -69 -29 -120 25 -120 128
0 110 51 164 123 131z m1840 0 c37 -17 52 -54 52 -129 0 -77 -16 -114 -55
-130 -69 -29 -120 25 -120 128 0 110 51 164 123 131z m210 0 c37 -17 52 -54
52 -129 0 -77 -16 -114 -55 -130 -69 -29 -120 25 -120 128 0 110 51 164 123
131z m320 0 c37 -17 52 -54 52 -129 0 -77 -16 -114 -55 -130 -69 -29 -120 25
-120 128 0 110 51 164 123 131z m207 -114 c0 -118 1 -125 20 -125 11 0 20 -7
20 -15 0 -12 -13 -15 -55 -15 -42 0 -55 3 -55 15 0 8 9 15 20 15 19 0 20 7 20
110 0 103 -1 110 -20 110 -11 0 -20 7 -20 15 0 10 11 15 35 15 l35 0 0 -125z
m223 114 c37 -17 52 -54 52 -129 0 -77 -16 -114 -55 -130 -69 -29 -120 25
-120 128 0 110 51 164 123 131z m220 0 c37 -17 52 -54 52 -129 0 -77 -16 -114
-55 -130 -69 -29 -120 25 -120 128 0 110 51 164 123 131z m220 0 c37 -17 52
-54 52 -129 0 -77 -16 -114 -55 -130 -69 -29 -120 25 -120 128 0 110 51 164
123 131z m210 0 c37 -17 52 -54 52 -129 0 -77 -16 -114 -55 -130 -69 -29 -120
25 -120 128 0 110 51 164 123 131z m207 -114 c0 -118 1 -125 20 -125 11 0 20
-7 20 -15 0 -12 -13 -15 -55 -15 -42 0 -55 3 -55 15 0 8 9 15 20 15 19 0 20 7
20 110 0 103 -1 110 -20 110 -11 0 -20 7 -20 15 0 10 11 15 35 15 l35 0 0
-125z m233 114 c37 -17 52 -54 52 -129 0 -77 -16 -114 -55 -130 -69 -29 -120
25 -120 128 0 110 51 164 123 131z m310 0 c37 -17 52 -54 52 -129 0 -77 -16
-114 -55 -130 -69 -29 -120 25 -120 128 0 110 51 164 123 131z m3360 0 c37
-17 52 -54 52 -129 0 -77 -16 -114 -55 -130 -69 -29 -120 25 -120 128 0 110
51 164 123 131z m-8860 -800 c37 -17 52 -54 52 -129 0 -77 -16 -114 -55 -130
-69 -29 -120 25 -120 128 0 110 51 164 123 131z m207 -114 c0 -118 1 -125 20
-125 11 0 20 -7 20 -15 0 -12 -13 -15 -55 -15 -42 0 -55 3 -55 15 0 8 9 15 20
15 19 0 20 7 20 110 0 103 -1 110 -20 110 -11 0 -20 7 -20 15 0 10 11 15 35
15 l35 0 0 -125z m210 0 c0 -118 1 -125 20 -125 11 0 20 -7 20 -15 0 -12 -13
-15 -55 -15 -42 0 -55 3 -55 15 0 8 9 15 20 15 19 0 20 7 20 110 0 103 -1 110
-20 110 -11 0 -20 7 -20 15 0 10 11 15 35 15 l35 0 0 -125z m233 114 c37 -17
52 -54 52 -129 0 -77 -16 -114 -55 -130 -69 -29 -120 25 -120 128 0 110 51
164 123 131z m1387 -114 c0 -118 1 -125 20 -125 11 0 20 -7 20 -15 0 -12 -13
-15 -55 -15 -42 0 -55 3 -55 15 0 8 9 15 20 15 19 0 20 7 20 110 0 103 -1 110
-20 110 -11 0 -20 7 -20 15 0 10 11 15 35 15 l35 0 0 -125z m220 0 c0 -118 1
-125 20 -125 11 0 20 -7 20 -15 0 -12 -13 -15 -55 -15 -42 0 -55 3 -55 15 0 8
9 15 20 15 19 0 20 7 20 110 0 103 -1 110 -20 110 -11 0 -20 7 -20 15 0 10 11
15 35 15 l35 0 0 -125z m210 0 c0 -118 1 -125 20 -125 11 0 20 -7 20 -15 0
-12 -13 -15 -55 -15 -42 0 -55 3 -55 15 0 8 9 15 20 15 19 0 20 7 20 110 0
103 -1 110 -20 110 -11 0 -20 7 -20 15 0 10 11 15 35 15 l35 0 0 -125z"/>
<path d="M6594 11485 c-30 -74 -7 -185 39 -185 42 0 57 29 57 112 0 60 -4 78
-18 91 -31 28 -61 21 -78 -18z"/>
<path d="M7580 11514 c0 -3 15 -26 33 -52 l32 -47 3 33 c4 38 -20 72 -50 72
-10 0 -18 -3 -18 -6z"/>
<path d="M9128 11383 c-44 -63 -47 -83 -15 -83 39 0 59 31 55 87 l-3 50 -37
-54z"/>
<path d="M7245 9886 c-17 -40 -20 -126 -5 -126 5 0 28 28 51 62 46 67 45 90
-5 96 -22 3 -29 -2 -41 -32z"/>
<path d="M8702 9871 l33 -50 3 30 c4 35 -21 69 -50 69 -16 0 -14 -6 14 -49z"/>
<path d="M6594 9085 c-31 -75 -7 -185 40 -185 39 0 56 34 56 116 0 56 -4 74
-18 87 -31 28 -61 21 -78 -18z"/>
<path d="M7565 9083 c-29 -43 -33 -95 -11 -148 17 -40 52 -47 79 -17 25 28 24
163 -1 185 -27 25 -38 21 -67 -20z"/>
<path d="M8410 8980 c0 -6 7 -26 14 -45 11 -24 21 -35 36 -35 20 0 19 3 -11
45 -34 47 -39 52 -39 35z"/>
<path d="M12290 11497 l0 -775 30 15 c59 29 114 -8 126 -83 19 -127 -44 -212
-126 -171 l-30 15 0 -120 0 -120 418 5 c310 3 449 9 541 21 233 31 397 77 531
147 103 54 124 73 111 98 -19 34 -13 142 8 178 33 53 98 53 141 0 16 -20 18
-18 48 54 16 41 37 99 46 129 22 76 46 242 46 318 0 57 -2 63 -25 72 -35 13
-55 60 -55 130 0 63 18 112 46 128 15 8 14 16 -5 86 -83 302 -305 532 -571
591 -173 39 -295 47 -792 52 l-488 5 0 -775z m90 -72 c0 -118 1 -125 20 -125
11 0 20 -7 20 -15 0 -12 -13 -15 -55 -15 -42 0 -55 3 -55 15 0 8 9 15 20 15
19 0 20 7 20 110 0 103 -1 110 -20 110 -11 0 -20 7 -20 15 0 10 11 15 35 15
l35 0 0 -125z m223 114 c37 -17 52 -54 52 -129 0 -77 -16 -114 -55 -130 -69
-29 -120 25 -120 128 0 110 51 164 123 131z m207 -114 c0 -118 1 -125 20 -125
11 0 20 -7 20 -15 0 -12 -13 -15 -55 -15 -42 0 -55 3 -55 15 0 8 9 15 20 15
19 0 20 7 20 110 0 103 -1 110 -20 110 -11 0 -20 7 -20 15 0 10 11 15 35 15
l35 0 0 -125z m333 114 c37 -17 52 -54 52 -129 0 -77 -16 -114 -55 -130 -69
-29 -120 25 -120 128 0 110 51 164 123 131z m197 -114 c0 -118 1 -125 20 -125
11 0 20 -7 20 -15 0 -12 -13 -15 -55 -15 -42 0 -55 3 -55 15 0 8 9 15 20 15
19 0 20 7 20 110 0 103 -1 110 -20 110 -11 0 -20 7 -20 15 0 10 11 15 35 15
l35 0 0 -125z m220 0 c0 -118 1 -125 20 -125 11 0 20 -7 20 -15 0 -12 -13 -15
-55 -15 -42 0 -55 3 -55 15 0 8 9 15 20 15 19 0 20 7 20 110 0 103 -1 110 -20
110 -11 0 -20 7 -20 15 0 10 11 15 35 15 l35 0 0 -125z m220 0 c0 -118 1 -125
20 -125 11 0 20 -7 20 -15 0 -12 -13 -15 -55 -15 -42 0 -55 3 -55 15 0 8 9 15
20 15 19 0 20 7 20 110 0 103 -1 110 -20 110 -11 0 -20 7 -20 15 0 10 11 15
35 15 l35 0 0 -125z m223 114 c37 -17 52 -54 52 -129 0 -77 -16 -114 -55 -130
-69 -29 -120 25 -120 128 0 110 51 164 123 131z m-1413 -914 c0 -118 1 -125
20 -125 11 0 20 -7 20 -15 0 -12 -13 -15 -55 -15 -42 0 -55 3 -55 15 0 8 9 15
20 15 19 0 20 7 20 110 0 103 -1 110 -20 110 -11 0 -20 7 -20 15 0 10 11 15
35 15 l35 0 0 -125z m220 0 c0 -118 1 -125 20 -125 11 0 20 -7 20 -15 0 -12
-13 -15 -55 -15 -42 0 -55 3 -55 15 0 8 9 15 20 15 19 0 20 7 20 110 0 103 -1
110 -20 110 -11 0 -20 7 -20 15 0 10 11 15 35 15 l35 0 0 -125z m333 114 c37
-17 52 -54 52 -129 0 -77 -16 -114 -55 -130 -69 -29 -120 25 -120 128 0 110
51 164 123 131z m197 -114 c0 -118 1 -125 20 -125 11 0 20 -7 20 -15 0 -12
-13 -15 -55 -15 -42 0 -55 3 -55 15 0 8 9 15 20 15 19 0 20 7 20 110 0 103 -1
110 -20 110 -11 0 -20 7 -20 15 0 10 11 15 35 15 l35 0 0 -125z m220 0 c0
-118 1 -125 20 -125 11 0 20 -7 20 -15 0 -12 -13 -15 -55 -15 -42 0 -55 3 -55
15 0 8 9 15 20 15 19 0 20 7 20 110 0 103 -1 110 -20 110 -11 0 -20 7 -20 15
0 10 11 15 35 15 l35 0 0 -125z m233 114 c37 -17 52 -54 52 -129 0 -77 -16
-114 -55 -130 -69 -29 -120 25 -120 128 0 110 51 164 123 131z"/>
<path d="M12524 11485 c-30 -74 -7 -185 39 -185 42 0 57 29 57 112 0 60 -4 78
-18 91 -31 28 -61 21 -78 -18z"/>
<path d="M13064 11485 c-30 -74 -7 -185 39 -185 42 0 57 29 57 112 0 60 -4 78
-18 91 -31 28 -61 21 -78 -18z"/>
<path d="M13924 11485 c-30 -74 -7 -185 39 -185 42 0 57 29 57 112 0 60 -4 78
-18 91 -31 28 -61 21 -78 -18z"/>
<path d="M13064 10685 c-30 -74 -7 -185 39 -185 42 0 57 29 57 112 0 60 -4 78
-18 91 -31 28 -61 21 -78 -18z"/>
<path d="M13714 10685 c-30 -74 -7 -185 39 -185 42 0 57 29 57 112 0 60 -4 78
-18 91 -31 28 -61 21 -78 -18z"/>
<path d="M14141 11479 c-21 -61 -2 -179 28 -179 12 0 14 77 5 158 -8 60 -17
66 -33 21z"/>
<path d="M12314 10685 c-30 -74 -7 -185 39 -185 42 0 57 29 57 112 0 60 -4 78
-18 91 -31 28 -61 21 -78 -18z"/>
<path d="M13924 10685 c-15 -36 -18 -107 -5 -139 6 -16 13 -11 54 34 51 57 60
95 29 123 -31 28 -61 21 -78 -18z"/>
<path d="M14383 9912 c-54 -34 -37 -212 20 -212 42 0 57 29 57 112 0 60 -4 78
-18 91 -20 18 -40 21 -59 9z"/>
<path d="M13960 9718 l-25 -11 24 -5 c13 -2 31 3 39 12 14 13 14 16 2 15 -8 0
-26 -5 -40 -11z"/>
<path d="M5724 11485 c-30 -74 -7 -185 39 -185 42 0 57 29 57 112 0 60 -4 78
-18 91 -31 28 -61 21 -78 -18z"/>
<path d="M6374 11485 c-30 -74 -7 -185 39 -185 42 0 57 29 57 112 0 60 -4 78
-18 91 -31 28 -61 21 -78 -18z"/>
<path d="M7994 11485 c-30 -74 -7 -185 39 -185 42 0 57 29 57 112 0 60 -4 78
-18 91 -31 28 -61 21 -78 -18z"/>
<path d="M9394 11485 c-30 -74 -7 -185 39 -185 42 0 57 29 57 112 0 60 -4 78
-18 91 -31 28 -61 21 -78 -18z"/>
<path d="M9824 11485 c-30 -74 -7 -185 39 -185 42 0 57 29 57 112 0 60 -4 78
-18 91 -31 28 -61 21 -78 -18z"/>
<path d="M10264 11485 c-30 -74 -7 -185 39 -185 42 0 57 29 57 112 0 60 -4 78
-18 91 -31 28 -61 21 -78 -18z"/>
<path d="M10474 11485 c-30 -74 -7 -185 39 -185 42 0 57 29 57 112 0 60 -4 78
-18 91 -31 28 -61 21 -78 -18z"/>
<path d="M10694 11485 c-30 -74 -7 -185 39 -185 42 0 57 29 57 112 0 60 -4 78
-18 91 -31 28 -61 21 -78 -18z"/>
<path d="M10914 11485 c-30 -74 -7 -185 39 -185 42 0 57 29 57 112 0 60 -4 78
-18 91 -31 28 -61 21 -78 -18z"/>
<path d="M11224 11485 c-30 -74 -7 -185 39 -185 42 0 57 29 57 112 0 60 -4 78
-18 91 -31 28 -61 21 -78 -18z"/>
<path d="M5724 10685 c-30 -74 -7 -185 39 -185 42 0 57 29 57 112 0 60 -4 78
-18 91 -31 28 -61 21 -78 -18z"/>
<path d="M6374 10685 c-30 -74 -7 -185 39 -185 42 0 57 29 57 112 0 60 -4 78
-18 91 -31 28 -61 21 -78 -18z"/>
<path d="M6804 10685 c-30 -74 -7 -185 39 -185 42 0 57 29 57 112 0 60 -4 78
-18 91 -31 28 -61 21 -78 -18z"/>
<path d="M7024 10685 c-30 -74 -7 -185 39 -185 42 0 57 29 57 112 0 60 -4 78
-18 91 -31 28 -61 21 -78 -18z"/>
<path d="M8864 10685 c-30 -74 -7 -185 39 -185 42 0 57 29 57 112 0 60 -4 78
-18 91 -31 28 -61 21 -78 -18z"/>
<path d="M9394 10685 c-30 -74 -7 -185 39 -185 42 0 57 29 57 112 0 60 -4 78
-18 91 -31 28 -61 21 -78 -18z"/>
<path d="M10044 10685 c-30 -74 -7 -185 39 -185 42 0 57 29 57 112 0 60 -4 78
-18 91 -31 28 -61 21 -78 -18z"/>
<path d="M10914 10685 c-30 -74 -7 -185 39 -185 42 0 57 29 57 112 0 60 -4 78
-18 91 -31 28 -61 21 -78 -18z"/>
<path d="M11224 10685 c-30 -74 -7 -185 39 -185 42 0 57 29 57 112 0 60 -4 78
-18 91 -31 28 -61 21 -78 -18z"/>
<path d="M5724 9885 c-30 -74 -7 -185 39 -185 42 0 57 29 57 112 0 60 -4 78
-18 91 -31 28 -61 21 -78 -18z"/>
<path d="M6374 9885 c-30 -74 -7 -185 39 -185 42 0 57 29 57 112 0 60 -4 78
-18 91 -31 28 -61 21 -78 -18z"/>
<path d="M6594 9885 c-30 -74 -7 -185 39 -185 42 0 57 29 57 112 0 60 -4 78
-18 91 -31 28 -61 21 -78 -18z"/>
<path d="M7024 9885 c-30 -74 -7 -185 39 -185 42 0 57 29 57 112 0 60 -4 78
-18 91 -31 28 -61 21 -78 -18z"/>
<path d="M8864 9885 c-30 -74 -7 -185 39 -185 42 0 57 29 57 112 0 60 -4 78
-18 91 -31 28 -61 21 -78 -18z"/>
<path d="M9074 9885 c-30 -74 -7 -185 39 -185 42 0 57 29 57 112 0 60 -4 78
-18 91 -31 28 -61 21 -78 -18z"/>
<path d="M9394 9885 c-30 -74 -7 -185 39 -185 42 0 57 29 57 112 0 60 -4 78
-18 91 -31 28 -61 21 -78 -18z"/>
<path d="M9824 9885 c-30 -74 -7 -185 39 -185 42 0 57 29 57 112 0 60 -4 78
-18 91 -31 28 -61 21 -78 -18z"/>
<path d="M10044 9885 c-30 -74 -7 -185 39 -185 42 0 57 29 57 112 0 60 -4 78
-18 91 -31 28 -61 21 -78 -18z"/>
<path d="M10264 9885 c-30 -74 -7 -185 39 -185 42 0 57 29 57 112 0 60 -4 78
-18 91 -31 28 -61 21 -78 -18z"/>
<path d="M10474 9885 c-30 -74 -7 -185 39 -185 42 0 57 29 57 112 0 60 -4 78
-18 91 -31 28 -61 21 -78 -18z"/>
<path d="M10914 9885 c-30 -74 -7 -185 39 -185 42 0 57 29 57 112 0 60 -4 78
-18 91 -31 28 -61 21 -78 -18z"/>
<path d="M11224 9885 c-30 -74 -7 -185 39 -185 42 0 57 29 57 112 0 60 -4 78
-18 91 -31 28 -61 21 -78 -18z"/>
<path d="M14584 9885 c-30 -74 -7 -185 39 -185 42 0 57 29 57 112 0 60 -4 78
-18 91 -31 28 -61 21 -78 -18z"/>
<path d="M5724 9085 c-30 -74 -7 -185 39 -185 42 0 57 29 57 112 0 60 -4 78
-18 91 -31 28 -61 21 -78 -18z"/>
<path d="M6374 9085 c-30 -74 -7 -185 39 -185 42 0 57 29 57 112 0 60 -4 78
-18 91 -31 28 -61 21 -78 -18z"/>
</g>
</svg>
