
<svg xmlns="http://www.w3.org/2000/svg" width="842.5" height="313.3" viewBox="0 0 842.5 313.3">
  <path fill="#FFF" d="M296.8 138.8c0-27.9-22.7-50.7-50.7-50.7-2.4 0-4.9.2-7.3.5-12.5-24.2-37.4-39.5-65-39.5s-52.5 15.3-65 39.5c-2.4-.4-4.9-.5-7.3-.5-27.9 0-50.7 22.7-50.7 50.7s22.7 50.7 50.7 50.7h4.1c-.8-2.5-1.2-5.1-1.2-7.7 0-2.3.3-4.5.9-6.6h-3.8c-20 0-36.3-16.3-36.3-36.3 0-20 16.3-36.3 36.3-36.3 3.2 0 6.4.4 9.5 1.3l6.1 1.6 2.4-5.8c9.2-21.9 30.5-36.1 54.3-36.1 23.8 0 45.1 14.2 54.3 36.1l2.4 5.8 6.1-1.6c3.1-.8 6.3-1.3 9.5-1.3 20 0 36.3 16.3 36.3 36.3 0 20-16.3 36.3-36.3 36.3h-.2c.3.7.5 1.5.7 2.3 1.1 4 1.2 8.1.4 12 27.5-.6 49.8-23.1 49.8-50.7z"/>
  <path fill="#FFF" d="M239.5 196.1c3.3-5 4.6-11.4 2.9-17.6-1.7-6.2-6-11.1-11.5-13.6v-15.7c0-31.3-25.4-56.7-56.7-56.7h-1c-31.3 0-56.7 25.4-56.7 56.7V165c-4.7 4.1-7.7 10-7.7 16.7s3 12.7 7.7 16.7c3.9 3.3 8.9 5.4 14.3 5.4v-54.7c0-23.4 19-42.3 42.4-42.3h1c23.4 0 42.4 19 42.4 42.3V204c0 20.2-14.2 37.1-33.1 41.3-2.2-3-5.8-4.9-9.7-4.9h-14.6c-6.7 0-12.2 5.5-12.2 12.2 0 6.7 5.5 12.2 12.2 12.2h14.6c4 0 7.5-1.9 9.7-4.9 26.9-4.4 47.4-27.8 47.4-55.9v-.4c3.6-1.7 6.5-4.3 8.6-7.5zm106.6-16.9h22.2v5.1h-8.1v31.4h-6v-31.4h-8.1v-5.1zm67.8 0h20.9v4.8H420v10.4h11.6v4.9H420v11.4h15v5h-21.1v-36.5zm68 0h6v31.4h12.9v5.1h-18.9v-36.5zm65.2 0H568v4.8h-14.8v10.4h11.6v4.9h-11.6v11.4h15.1v5h-21.1v-36.5zm86.4 24.2l5.5.8c-1.1 8.1-5.1 12.2-11.9 12.2-4.4 0-7.7-1.7-9.9-5.1-2.2-3.4-3.3-8-3.3-13.7 0-6.2 1.1-10.9 3.4-14.2 2.3-3.3 5.6-4.9 9.9-4.9 6.7 0 10.6 4.2 11.8 12.5l-5.6.8c-.6-5.5-2.6-8.3-6.1-8.3-4.6 0-7 4.8-7 14.4 0 9 2.3 13.4 7 13.4 1.9 0 3.3-.7 4.2-2 .9-1.3 1.6-3.3 2-5.9zm78.4-6c0 6.2-1.1 11-3.3 14.2-2.2 3.2-5.5 4.8-9.7 4.8-4.3 0-7.5-1.6-9.8-4.8-2.3-3.2-3.4-7.9-3.4-14.2 0-6.2 1.1-10.9 3.4-14.1 2.2-3.2 5.5-4.8 9.8-4.8 4.2 0 7.4 1.6 9.7 4.8 2.1 3.2 3.3 7.9 3.3 14.1zm-6.4.1c0-4.3-.5-7.8-1.5-10.3-1-2.5-2.8-3.7-5.3-3.7s-4.3 1.3-5.3 3.8-1.5 5.9-1.5 10.2c0 4.3.5 7.6 1.5 10.2s2.8 3.8 5.4 3.8c2.4 0 4.2-1.2 5.2-3.7s1.5-5.9 1.5-10.3zm54.9-18.3h8.9l7.3 26.4 7.5-26.4h8.6v36.6H787v-31.2l-8.7 31.2h-4.4l-8.5-31.2v31.2h-5v-36.6zm-386.9-24.1h-27.4V97.6h26.7c11.7 0 19 5.8 19 14.9v.2c0 6.5-3.5 10.1-7.6 12.4 6.7 2.5 10.8 6.4 10.8 14.1v.2c0 10.4-8.5 15.7-21.5 15.7zm5.8-40.5c0-3.8-3-5.9-8.3-5.9h-12.5v12.2h11.7c5.6 0 9.1-1.8 9.1-6.1v-.2zm3.2 23c0-3.9-2.9-6.2-9.4-6.2h-14.6V144h15c5.6 0 9-2 9-6.2v-.2zm22.2 17.5V97.6h12.5v57.5h-12.5zm50.1-.8v-4.8c-3 3.4-7.2 5.6-13.3 5.6-8.3 0-15.1-4.8-15.1-13.5v-.2c0-9.6 7.3-14 17.7-14 4.4 0 7.6.7 10.8 1.8v-.7c0-5.2-3.2-8.1-9.4-8.1-4.8 0-8.1.9-12.2 2.4l-3.1-9.5c4.8-2.1 9.6-3.5 17.1-3.5 13.6 0 19.6 7.1 19.6 19v25.6h-12.1zm.2-17.8c-2.1-1-4.9-1.6-8-1.6-5.3 0-8.6 2.1-8.6 6.1v.2c0 3.4 2.8 5.3 6.8 5.3 5.8 0 9.8-3.2 9.8-7.7v-2.3zm43.4 18.6c-13.2 0-22.9-10.2-22.9-22.8v-.2c0-12.6 9.6-22.9 23.1-22.9 8.3 0 13.5 2.8 17.6 7.4l-7.6 8.2c-2.8-3-5.6-4.8-10-4.8-6.2 0-10.7 5.5-10.7 12v.2c0 6.7 4.4 12.2 11.2 12.2 4.2 0 7.1-1.8 10.1-4.7l7.3 7.4c-4.4 4.6-9.3 8-18.1 8zm54.5 0l-11.5-18-4.4 4.6v13.4h-12.5V97.6H537v29.5l14.6-16h15l-16.8 17.3 17.3 26.7h-14.2zm49.2 0c-17.4 0-29.3-12.2-29.3-28.7v-.2c0-15.8 12.3-28.8 29.2-28.8 10 0 16.1 2.7 21.9 7.6l-7.7 9.3c-4.3-3.6-8.1-5.7-14.6-5.7-8.9 0-16 7.9-16 17.4v.2c0 10.2 7 17.7 16.9 17.7 4.5 0 8.4-1.1 11.5-3.3v-8h-12.3V122h24.2v24.2c-5.7 4.9-13.6 8.9-23.8 8.9zm79.6 0l-5.3-12.9h-24.3l-5.3 12.9H634l24.6-57.9h11.7l24.6 57.9h-13.2zm-17.4-42.7l-7.6 18.7H672l-7.7-18.7zm58.2-3.2V155h-12.7v-45.8h-17.5V97.6H740v11.7h-17.5zm27.2 45.9V97.6H793v11.3h-30.8v11.7h27.1v11.3h-27.1V144h31.2v11.3h-43.7z"/>
</svg>
